# xmcd CD database file
#
# Track frame offsets:
#	150
#	18747
#	32210
#	46285
#	61152
#	75422
#	91300
#	105907
#	119482
#	134132
#	150097
#	165830
#	184675
#	197560
#
# Disc length: 2833 seconds
#
# Revision: 1
# Processed by: cddbd v1.4PL0 Copyright (c) Steve Scherf et al.
# Submitted via: CDex 1.40Beta4
#
DISCID=a50b0f0e
DTITLE=Bolicho da Alegria - Volume 2
DYEAR=1900
DGENRE=Country
TTITLE0=Xirú Missioneiro - Batendo Matraca
TTITLE1=João Luiz Corrêa - Parando Rodeio
TTITLE2=Tchê Barbaridade - O Rio Grande me Criou
TTITLE3=Tchê Garotos - Partindo Rumo à Fronteira
TTITLE4=Grupo Rodeio - Sina de Andejo
TTITLE5=Grupo Reponte - Bate Coxa no Totonho
TTITLE6=Grupo Raízes - Bagual da Madrugada
TTITLE7=Bereníce Azambuja - Eta Paixão
TTITLE8=Os Nativos - Capricha Gaiteiro
TTITLE9=Os Mateadores - Sou Queixo Duro
TTITLE10=Os Tiranos - Cantando o Rio Grande
TTITLE11=Os Serranos - Ginete de Fronteira
TTITLE12=Osvaldir e Carlos Magrão - Uma Gauderiada
TTITLE13=Os Orelhanos - Aí Vem os Home
EXTD=ID3G:   2
EXTT0=
EXTT1=
EXTT2=
EXTT3=
EXTT4=
EXTT5=
EXTT6=
EXTT7=
EXTT8=
EXTT9=
EXTT10=
EXTT11=
EXTT12=
EXTT13=
PLAYORDER=
